<?xml version="1.0" encoding="utf-8"?>
<svg version="1.1" xmlns:xlink="http://www.w3.org/1999/xlink" width="40px" height="25px" xmlns="http://www.w3.org/2000/svg">
  <g transform="matrix(1 0 0 1 -909 -1179 )">
    <path d="M 2.36111111111111 14.8351648351648  C 2.5462962962963 15.2014652014652  2.87037037037037 15.3846153846154  3.33333333333333 15.3846153846154  C 3.7962962962963 15.3846153846154  4.12037037037037 15.2014652014652  4.30555555555556 14.8351648351648  C 4.49074074074074 14.4688644688645  4.49074074074074 14.1025641025641  4.30555555555556 13.7362637362637  C 4.12037037037037 13.3699633699634  3.7962962962963 13.1868131868132  3.33333333333333 13.1868131868132  C 2.87037037037037 13.1868131868132  2.5462962962963 13.3699633699634  2.36111111111111 13.7362637362637  C 2.17592592592593 14.1025641025641  2.17592592592593 14.4688644688645  2.36111111111111 14.8351648351648  Z M 29.4357638888889 15.6507554945055  C 29.3952546296296 15.1986034798535  29.21875 14.7779304029304  28.90625 14.3887362637363  C 28.7905092592593 14.2399267399267  28.5677083333333 13.9537545787546  28.2378472222222 13.5302197802198  C 27.9079861111111 13.106684981685  27.6678240740741 12.797619047619  27.5173611111111 12.603021978022  C 27.3668981481481 12.4084249084249  27.1469907407407 12.1279761904762  26.8576388888889 11.7616758241758  C 26.568287037037 11.3953754578755  26.322337962963 11.092032967033  26.1197916666667 10.8516483516484  C 25.9172453703704 10.6112637362637  25.6828703703704 10.3422619047619  25.4166666666667 10.0446428571429  C 25.150462962963 9.74702380952381  24.8900462962963 9.46657509157509  24.6354166666667 9.2032967032967  L 22.4652777777778 11.6071428571429  C 21.5046296296296 12.6831501831502  20.2980324074074 13.209706959707  18.8454861111111 13.1868131868132  C 17.3929398148148 13.1639194139194  16.2037037037037 12.603021978022  15.2777777777778 11.5041208791209  C 14.6180555555556 10.7142857142857  14.291087962963 9.80998168498168  14.296875 8.79120879120879  C 14.302662037037 7.7724358974359  14.6412037037037 6.87385531135531  15.3125 6.09546703296703  L 18.3854166666667 2.55837912087912  C 18.130787037037 2.43246336996337  17.8356481481482 2.33802655677655  17.5 2.27506868131868  C 17.1643518518519 2.2121108058608  16.8894675925926 2.17777014652014  16.6753472222222 2.1720467032967  C 16.4612268518519 2.16632326007326  16.1342592592593 2.16918498168498  15.6944444444444 2.18063186813187  C 15.2546296296296 2.19207875457875  14.9710648148148 2.1978021978022  14.84375 2.1978021978022  C 13.7789351851852 2.1978021978022  12.8645833333333 2.57554945054945  12.1006944444444 3.33104395604396  L 9.35763888888889 6.04395604395604  L 6.66666666666667 6.04395604395604  L 6.66666666666667 15.3846153846154  C 6.72453703703704 15.3846153846154  6.84606481481481 15.3817536630037  7.03125 15.3760302197802  C 7.21643518518519 15.3703067765568  7.34375 15.3703067765568  7.41319444444444 15.3760302197802  C 7.48263888888889 15.3817536630037  7.59548611111111 15.3932005494505  7.75173611111111 15.4103708791209  C 7.90798611111111 15.4275412087912  8.02662037037037 15.4532967032967  8.10763888888889 15.4876373626374  C 8.18865740740741 15.521978021978  8.28993055555556 15.5706272893773  8.41145833333333 15.6335851648352  C 8.53298611111111 15.696543040293  8.6400462962963 15.7738095238095  8.73263888888889 15.8653846153846  L 13.8888888888889 20.8791208791209  C 15.2199074074074 22.1497252747253  16.5335648148148 22.7850274725275  17.8298611111111 22.7850274725275  C 18.7326388888889 22.7850274725275  19.4560185185185 22.5160256410256  20 21.978021978022  C 20.6597222222222 22.2069597069597  21.3107638888889 22.1611721611722  21.953125 21.8406593406593  C 22.5954861111111 21.5201465201465  23.0150462962963 21.0336538461538  23.2118055555556 20.3811813186813  C 24.068287037037 20.4498626373626  24.8032407407407 20.1980311355311  25.4166666666667 19.6256868131868  C 25.6481481481481 19.4196428571429  25.8564814814815 19.1592261904762  26.0416666666667 18.8444368131868  C 26.2268518518519 18.5296474358974  26.3078703703704 18.2406135531136  26.2847222222222 17.9773351648352  C 26.400462962963 18.091804029304  26.6493055555556 18.1490384615385  27.03125 18.1490384615385  C 27.5289351851852 18.1490384615385  27.974537037037 18.0288461538462  28.3680555555556 17.7884615384615  C 28.7615740740741 17.5480769230769  29.0480324074074 17.2447344322344  29.2274305555556 16.8784340659341  C 29.4068287037037 16.5121336996337  29.4762731481481 16.1029075091575  29.4357638888889 15.6507554945055  Z M 30.625 12.9807692307692  C 31.2268518518519 13.7362637362637  31.5740740740741 14.5375457875458  31.6666666666667 15.3846153846154  L 33.3333333333333 15.3846153846154  L 33.3333333333333 6.59340659340659  L 31.71875 6.59340659340659  L 28.9930555555556 3.50274725274725  C 28.2291666666667 2.63278388278388  27.2511574074074 2.1978021978022  26.0590277777778 2.1978021978022  L 23.1597222222222 2.1978021978022  C 22.1296296296296 2.1978021978022  21.2847222222222 2.58127289377289  20.625 3.34821428571428  L 16.9965277777778 7.5206043956044  C 16.6724537037037 7.89835164835165  16.5104166666667 8.32760989010989  16.5104166666667 8.80837912087912  C 16.5104166666667 9.28914835164835  16.6666666666667 9.71840659340659  16.9791666666667 10.0961538461538  C 17.4768518518519 10.6799450549451  18.1134259259259 10.9775641025641  18.8888888888889 10.989010989011  C 19.6643518518519 11.0004578754579  20.306712962963 10.7200091575092  20.8159722222222 10.1476648351648  L 24.1666666666667 6.40453296703297  C 24.4560185185185 6.14125457875458  24.765625 6.01820054945055  25.0954861111111 6.03537087912088  C 25.4253472222222 6.05254120879121  25.697337962963 6.20707417582418  25.9114583333333 6.49896978021978  C 26.1255787037037 6.79086538461539  26.1747685185185 7.11423992673993  26.0590277777778 7.46909340659341  C 26.244212962963 7.68658424908425  26.568287037037 8.04716117216117  27.03125 8.55082417582418  C 27.494212962963 9.05448717948718  27.8414351851852 9.44368131868132  28.0729166666667 9.71840659340659  C 28.4085648148148 10.1304945054945  28.8859953703704 10.7343177655678  29.5052083333333 11.5298763736264  C 30.1244212962963 12.325434981685  30.4976851851852 12.8090659340659  30.625 12.9807692307692  Z M 35.6944444444444 14.8351648351648  C 35.8796296296296 15.2014652014652  36.2037037037037 15.3846153846154  36.6666666666667 15.3846153846154  C 37.1296296296296 15.3846153846154  37.4537037037037 15.2014652014652  37.6388888888889 14.8351648351648  C 37.8240740740741 14.4688644688645  37.8240740740741 14.1025641025641  37.6388888888889 13.7362637362637  C 37.4537037037037 13.3699633699634  37.1296296296296 13.1868131868132  36.6666666666667 13.1868131868132  C 36.2037037037037 13.1868131868132  35.8796296296296 13.3699633699634  35.6944444444444 13.7362637362637  C 35.5092592592593 14.1025641025641  35.5092592592593 14.4688644688645  35.6944444444444 14.8351648351648  Z M 39.6701388888889 4.72184065934066  C 39.8900462962963 4.9393315018315  40 5.19688644688645  40 5.49450549450549  L 40 16.4835164835165  C 40 16.7811355311355  39.8900462962963 17.0386904761905  39.6701388888889 17.2561813186813  C 39.4502314814815 17.4736721611722  39.1898148148148 17.5824175824176  38.8888888888889 17.5824175824176  L 31.3541666666667 17.5824175824176  C 31.0416666666667 18.3264652014652  30.5671296296296 18.9360119047619  29.9305555555556 19.4110576923077  C 29.2939814814815 19.8861034798535  28.5706018518519 20.1808608058608  27.7604166666667 20.2953296703297  C 27.3784722222222 20.8447802197802  26.9126157407407 21.3112408424908  26.3628472222222 21.6947115384615  C 25.8130787037037 22.0781822344322  25.2199074074074 22.3385989010989  24.5833333333333 22.4759615384615  C 24.0972222222222 23.0826465201465  23.4924768518519 23.5491071428571  22.7690972222222 23.8753434065934  C 22.0457175925926 24.2015796703297  21.3020833333333 24.341804029304  20.5381944444444 24.2960164835165  C 19.84375 24.6852106227106  19.1145833333333 24.9112866300366  18.3506944444444 24.9742445054945  C 17.5868055555556 25.0372023809524  16.8489583333333 24.9570741758242  16.1371527777778 24.7338598901099  C 15.4253472222222 24.5106456043956  14.7482638888889 24.2044413919414  14.1059027777778 23.8152472527473  C 13.4635416666667 23.4260531135531  12.8645833333333 22.9624542124542  12.3090277777778 22.4244505494506  L 7.32638888888889 17.5824175824176  L 1.11111111111111 17.5824175824176  C 0.810185185185185 17.5824175824176  0.549768518518518 17.4736721611722  0.329861111111111 17.2561813186813  C 0.109953703703704 17.0386904761905  0 16.7811355311355  0 16.4835164835165  L 0 4.94505494505494  C 0 4.6474358974359  0.109953703703704 4.38988095238095  0.329861111111111 4.17239010989011  C 0.549768518518518 3.95489926739927  0.810185185185185 3.84615384615385  1.11111111111111 3.84615384615385  L 8.42013888888889 3.84615384615385  C 8.58217592592593 3.68589743589743  8.85416666666667 3.41117216117216  9.23611111111111 3.02197802197802  C 9.61805555555556 2.63278388278388  9.89293981481481 2.35805860805861  10.0607638888889 2.1978021978022  C 10.228587962963 2.03754578754579  10.4832175925926 1.80860805860806  10.8246527777778 1.51098901098901  C 11.166087962963 1.21336996336996  11.4583333333333 0.998740842490839  11.7013888888889 0.867101648351648  C 11.9444444444444 0.735462454212452  12.2395833333333 0.58951465201465  12.5868055555556 0.429258241758243  C 12.9340277777778 0.269001831501828  13.2928240740741 0.157394688644685  13.6631944444444 0.0944368131868129  C 14.0335648148148 0.0314789377289376  14.4270833333333 0  14.84375 0  L 16.875 0  C 18.0208333333333 0  19.068287037037 0.320512820512817  20.0173611111111 0.961538461538461  C 20.9664351851852 0.320512820512817  22.0138888888889 0  23.1597222222222 0  L 26.0590277777778 0  C 26.4641203703704 0  26.8518518518519 0.0343406593406592  27.2222222222222 0.103021978021978  C 27.5925925925926 0.171703296703296  27.9195601851852 0.254693223443223  28.203125 0.351991758241757  C 28.4866898148148 0.449290293040291  28.7847222222222 0.600961538461539  29.0972222222222 0.807005494505494  C 29.4097222222222 1.01304945054945  29.6672453703704 1.19047619047619  29.8697916666667 1.33928571428572  C 30.072337962963 1.48809523809524  30.3211805555556 1.71417124542124  30.6163194444444 2.01751373626374  C 30.9114583333333 2.32085622710622  31.1371527777778 2.56124084249084  31.2934027777778 2.73866758241758  C 31.4496527777778 2.91609432234432  31.6869212962963 3.1908195970696  32.0052083333333 3.56284340659341  C 32.3234953703704 3.93486721611721  32.5636574074074 4.21245421245421  32.7256944444444 4.3956043956044  L 38.8888888888889 4.3956043956044  C 39.1898148148148 4.3956043956044  39.4502314814815 4.50434981684981  39.6701388888889 4.72184065934066  Z " fill-rule="nonzero" fill="#ffffff" stroke="none" transform="matrix(1 0 0 1 909 1179 )" />
  </g>
</svg>