<?xml version="1.0" encoding="utf-8"?>
<svg version="1.1" xmlns:xlink="http://www.w3.org/1999/xlink" width="39px" height="36px" xmlns="http://www.w3.org/2000/svg">
  <g transform="matrix(1 0 0 1 -255 -1734 )">
    <path d="M 37.0102040816327 7.1953125  C 37.6032412965186 7.4296875  38.0636254501801 7.765625  38.391356542617 8.203125  C 39.015606242497 9.09375  39.15606242497 10.1015625  38.812725090036 11.2265625  L 32.375150060024 32.4609375  C 32.078631452581 33.4609375  31.4816926770708 34.30078125  30.5843337334934 34.98046875  C 29.686974789916 35.66015625  28.7310924369748 36  27.7166866746699 36  L 6.10984393757503 36  C 4.90816326530612 36  3.74939975990396 35.58203125  2.63355342136855 34.74609375  C 1.51770708283313 33.91015625  0.741296518607443 32.8828125  0.304321728691477 31.6640625  C -0.0702280912364946 30.6171875  -0.0858343337334934 29.625  0.25750300120048 28.6875  C 0.25750300120048 28.625  0.280912364945978 28.4140625  0.327731092436975 28.0546875  C 0.374549819927971 27.6953125  0.405762304921969 27.40625  0.421368547418968 27.1875  C 0.436974789915966 27.0625  0.413565426170468 26.89453125  0.351140456182473 26.68359375  C 0.288715486194478 26.47265625  0.26530612244898 26.3203125  0.280912364945978 26.2265625  C 0.312124849939976 26.0546875  0.374549819927971 25.890625  0.468187274909964 25.734375  C 0.561824729891957 25.578125  0.690576230492197 25.39453125  0.854441776710684 25.18359375  C 1.01830732292917 24.97265625  1.14705882352941 24.7890625  1.2406962785114 24.6328125  C 1.59963985594238 24.0390625  1.95078031212485 23.32421875  2.29411764705882 22.48828125  C 2.6374549819928 21.65234375  2.87154861944778 20.9375  2.99639855942377 20.34375  C 3.04321728691477 20.1875  3.04711884753902 19.953125  3.00810324129652 19.640625  C 2.96908763505402 19.328125  2.96518607442977 19.109375  2.99639855942377 18.984375  C 3.04321728691477 18.8125  3.17587034813926 18.59375  3.39435774309724 18.328125  C 3.61284513805522 18.0625  3.74549819927971 17.8828125  3.79231692677071 17.7890625  C 4.12004801920768 17.2265625  4.44777911164466 16.5078125  4.77551020408163 15.6328125  C 5.10324129651861 14.7578125  5.29831932773109 14.0546875  5.36074429771909 13.5234375  C 5.37635054021609 13.3828125  5.35684273709484 13.1328125  5.30222088835534 12.7734375  C 5.24759903961585 12.4140625  5.2515006002401 12.1953125  5.31392557022809 12.1171875  C 5.37635054021609 11.9140625  5.54801920768307 11.67578125  5.82893157262905 11.40234375  C 6.10984393757503 11.12890625  6.28151260504202 10.953125  6.34393757503001 10.875  C 6.64045618247299 10.46875  6.97208883553421 9.80859375  7.33883553421369 8.89453125  C 7.70558223289316 7.98046875  7.92016806722689 7.2265625  7.98259303721489 6.6328125  C 7.99819927971189 6.50781249999999  7.97478991596639 6.30859375  7.91236494597839 6.03515625  C 7.8499399759904 5.76171875  7.8343337334934 5.5546875  7.8655462184874 5.4140625  C 7.89675870348139 5.2890625  7.96698679471789 5.1484375  8.07623049219688 4.9921875  C 8.18547418967587 4.8359375  8.32593037214886 4.65625  8.49759903961585 4.453125  C 8.66926770708283 4.25  8.80192076830732 4.0859375  8.89555822328932 3.9609375  C 9.02040816326531 3.7734375  9.14915966386555 3.53515625  9.28181272509004 3.24609375  C 9.41446578631453 2.95703125  9.53151260504202 2.68359375  9.63295318127251 2.42578125  C 9.734393757503 2.16796875  9.85924369747899 1.88671875  10.0075030012005 1.58203125  C 10.155762304922 1.27734375  10.3079231692677 1.02734375  10.4639855942377 0.832031249999999  C 10.6200480192077 0.636718749999995  10.8268307322929 0.453124999999997  11.0843337334934 0.28125  C 11.3418367346939 0.109374999999995  11.6227490996399 0.0195312499999996  11.9270708283313 0.0117187500000013  C 12.2313925570228 0.00390624999999512  12.6020408163265 0.0468750000000013  13.0390156062425 0.140625  L 13.015606242497 0.2109375  C 13.608643457383 0.0703125  14.0066026410564 0  14.2094837935174 0  L 32.0240096038415 0  C 33.1788715486195 0  34.0684273709484 0.437499999999996  34.6926770708283 1.3125  C 35.3169267707083 2.1875  35.4573829531813 3.203125  35.1140456182473 4.359375  L 28.6998799519808 25.59375  C 28.1380552220888 27.453125  27.5801320528211 28.65234375  27.0261104441777 29.19140625  C 26.4720888355342 29.73046875  25.469387755102 30  24.0180072028812 30  L 3.67527010804322 30  C 3.25390156062425 30  2.95738295318127 30.1171875  2.78571428571429 30.3515625  C 2.6140456182473 30.6015625  2.6062424969988 30.9375  2.76230492196879 31.359375  C 3.13685474189676 32.453125  4.26050420168067 33  6.13325330132053 33  L 27.7400960384154 33  C 28.1926770708283 33  28.6296518607443 32.87890625  29.0510204081633 32.63671875  C 29.4723889555822 32.39453125  29.7454981992797 32.0703125  29.8703481392557 31.6640625  L 36.8931572629052 8.53125  C 37.0024009603842 8.1875  37.0414165666267 7.7421875  37.0102040816327 7.1953125  Z M 13.9753901560624 6.75  L 13.483793517407 8.25  C 13.421368547419 8.453125  13.436974789916 8.62890625  13.530612244898 8.77734375  C 13.62424969988 8.92578125  13.7803121248499 9  13.9987995198079 9  L 28.2316926770708 9  C 28.4345738295318 9  28.6335534213685 8.92578125  28.828631452581 8.77734375  C 29.0237094837935 8.62890625  29.1524609843938 8.453125  29.2148859543818 8.25  L 29.7064825930372 6.75  C 29.7689075630252 6.546875  29.7533013205282 6.37109375  29.6596638655462 6.22265625  C 29.5660264105642 6.07421875  29.4099639855942 6  29.1914765906363 6  L 14.9585834333733 6  C 14.7557022809124 6  14.5567226890756 6.07421875  14.3616446578631 6.22265625  C 14.1665666266507 6.37109375  14.0378151260504 6.546875  13.9753901560624 6.75  Z M 12.0324129651861 12.75  L 11.5408163265306 14.25  C 11.4783913565426 14.453125  11.4939975990396 14.62890625  11.5876350540216 14.77734375  C 11.6812725090036 14.92578125  11.8373349339736 15  12.0558223289316 15  L 26.2887154861945 15  C 26.4915966386555 15  26.6905762304922 14.92578125  26.8856542617047 14.77734375  C 27.0807322929172 14.62890625  27.2094837935174 14.453125  27.2719087635054 14.25  L 27.7635054021609 12.75  C 27.8259303721489 12.546875  27.8103241296519 12.37109375  27.7166866746699 12.22265625  C 27.6230492196879 12.07421875  27.4669867947179 12  27.2484993997599 12  L 13.015606242497 12  C 12.812725090036 12  12.6137454981993 12.07421875  12.4186674669868 12.22265625  C 12.2235894357743 12.37109375  12.0948379351741 12.546875  12.0324129651861 12.75  Z " fill-rule="nonzero" fill="#0265bf" stroke="none" transform="matrix(1 0 0 1 255 1734 )" />
  </g>
</svg>