<?xml version="1.0" encoding="utf-8"?>
<svg version="1.1" xmlns:xlink="http://www.w3.org/1999/xlink" width="24px" height="17px" xmlns="http://www.w3.org/2000/svg">
  <g transform="matrix(1 0 0 1 -31 -139 )">
    <path d="M 23.5664516129032 2.34680134680135  C 23.8554838709677 2.61391694725028  24 2.93827160493827  24 3.31986531986532  C 24 3.70145903479237  23.8554838709677 4.02581369248036  23.5664516129032 4.29292929292929  L 12.3561290322581 14.6531986531987  L 10.2503225806452 16.5993265993266  C 9.96129032258065 16.8664421997755  9.61032258064516 17  9.19741935483871 17  C 8.78451612903226 17  8.43354838709677 16.8664421997755  8.14451612903226 16.5993265993266  L 6.03870967741935 14.6531986531987  L 0.433548387096774 9.47306397306397  C 0.144516129032258 9.20594837261504  0 8.88159371492705  0 8.5  C 0 8.11840628507295  0.144516129032258 7.79405162738496  0.433548387096774 7.52693602693603  L 2.53935483870968 5.58080808080808  C 2.82838709677419 5.31369248035915  3.17935483870968 5.18013468013468  3.59225806451613 5.18013468013468  C 4.00516129032258 5.18013468013468  4.35612903225806 5.31369248035915  4.64516129032258 5.58080808080808  L 9.19741935483871 9.80218855218855  L 19.3548387096774 0.400673400673401  C 19.6438709677419 0.133557800224466  19.9948387096774 0  20.4077419354839 0  C 20.8206451612903 0  21.1716129032258 0.133557800224466  21.4606451612903 0.400673400673401  L 23.5664516129032 2.34680134680135  Z " fill-rule="nonzero" fill="#000000" stroke="none" transform="matrix(1 0 0 1 31 139 )" />
  </g>
</svg>