<?xml version="1.0" encoding="utf-8"?>
<svg version="1.1" xmlns:xlink="http://www.w3.org/1999/xlink" width="25px" height="25px" xmlns="http://www.w3.org/2000/svg">
  <g transform="matrix(1 0 0 1 -245 -1120 )">
    <path d="M 22.5 22.6371447455387  L 22.5 2.11500330469266  L 2.5 2.11500330469266  L 2.5 22.6371447455387  L 10.76171875 15.9286186384666  L 12.5 14.5241242564441  L 14.23828125 15.9286186384666  L 22.5 22.6371447455387  Z M 2.265625 0  L 22.734375 0  C 23.0338541666667 0  23.3203125 0.0495703899537348  23.59375 0.148711169861204  C 24.0234375 0.291914518616432  24.365234375 0.517735183961224  24.619140625 0.826173165895572  C 24.873046875 1.13461114782992  25 1.47609605640009  25 1.85062789160608  L 25 23.1493721083939  C 25 23.5239039435999  24.873046875 23.8653888521701  24.619140625 24.1738268341044  C 24.365234375 24.4822648160388  24.0234375 24.7080854813836  23.59375 24.8512888301388  C 23.3463541666667 24.9394139678343  23.0598958333333 24.9834765366821  22.734375 24.9834765366821  C 22.109375 24.9834765366821  21.5690104166667 24.807226261291  21.11328125 24.4547257105089  L 12.5 17.4487772637145  L 3.88671875 24.4547257105089  C 3.41796875 24.818241903503  2.87760416666667 25  2.265625 25  C 1.96614583333333 25  1.6796875 24.9504296100463  1.40625 24.8512888301388  C 0.9765625 24.7080854813836  0.634765625 24.4822648160388  0.380859375 24.1738268341044  C 0.126953125 23.8653888521701  0 23.5239039435999  0 23.1493721083939  L 0 1.85062789160608  C 0 1.47609605640009  0.126953125 1.13461114782992  0.380859375 0.826173165895572  C 0.634765625 0.517735183961224  0.9765625 0.291914518616432  1.40625 0.148711169861204  C 1.6796875 0.0495703899537348  1.96614583333333 0  2.265625 0  Z " fill-rule="nonzero" fill="#ffffff" stroke="none" transform="matrix(1 0 0 1 245 1120 )" />
  </g>
</svg>