<?xml version="1.0" encoding="utf-8"?>
<svg version="1.1" xmlns:xlink="http://www.w3.org/1999/xlink" width="16px" height="24px" xmlns="http://www.w3.org/2000/svg">
  <g transform="matrix(1 0 0 1 -4 -113 )">
    <path d="M 15.7250859106529 11.4468937875752  C 15.9083619702176 11.6072144288577  16 11.7915831663327  16 12  C 16 12.2084168336673  15.9083619702176 12.3927855711423  15.7250859106529 12.5531062124248  L 2.91408934707904 23.7595190380762  C 2.73081328751432 23.9198396793587  2.52004581901489 24  2.28178694158076 24  C 2.04352806414662 24  1.83276059564719 23.9198396793587  1.64948453608247 23.7595190380762  L 0.274914089347079 22.5571142284569  C 0.0916380297823597 22.3967935871743  0 22.2124248496994  0 22.0040080160321  C 0 21.7955911823647  0.0916380297823597 21.6112224448898  0.274914089347079 21.4509018036072  L 11.0790378006873 12  L 0.274914089347079 2.54909819639279  C 0.0916380297823597 2.38877755511022  0 2.20440881763527  0 1.99599198396794  C 0 1.7875751503006  0.0916380297823597 1.60320641282565  0.274914089347079 1.44288577154308  L 1.64948453608247 0.240480961923848  C 1.83276059564719 0.0801603206412818  2.04352806414662 0  2.28178694158076 0  C 2.52004581901489 0  2.73081328751432 0.0801603206412818  2.91408934707904 0.240480961923848  L 15.7250859106529 11.4468937875752  Z " fill-rule="nonzero" fill="#0265bf" stroke="none" transform="matrix(1 0 0 1 4 113 )" />
  </g>
</svg>