<?xml version="1.0" encoding="utf-8"?>
<svg version="1.1" xmlns:xlink="http://www.w3.org/1999/xlink" width="22px" height="20px" xmlns="http://www.w3.org/2000/svg">
  <g transform="matrix(1 0 0 1 -32 -159 )">
    <path d="M 15.984375 17.5551354757404  L 15.0324519230769 12.2495274102079  L 19.078125 8.50661625708885  L 13.4987980769231 7.72526780088217  L 11 2.91115311909263  L 8.50120192307692 7.72526780088217  L 2.921875 8.50661625708885  L 6.96754807692308 12.2495274102079  L 6.00240384615385 17.5551354757404  L 11 15.047258979206  L 15.984375 17.5551354757404  Z M 21.2596153846154 7.17076244486452  C 21.7532051282051 7.2463768115942  22 7.43961352657005  22 7.75047258979206  C 22 7.93530770846461  21.8854166666667 8.13694601974375  21.65625 8.35538752362949  L 16.8569711538462 12.8166351606805  L 17.9939903846154 19.1178323881537  C 18.0028044871795 19.1766435622768  18.0072115384615 19.2606595253098  18.0072115384615 19.3698802772527  C 18.0072115384615 19.7899600924176  17.8265224358974 20  17.4651442307692 20  C 17.2976762820513 20  17.1213942307692 19.9495904221802  16.9362980769231 19.8487712665406  L 11 16.8746061751733  L 5.06370192307692 19.8487712665406  C 4.86979166666667 19.9495904221802  4.69350961538462 20  4.53485576923077 20  C 4.34975961538462 20  4.2109375 19.9390884268011  4.11838942307692 19.8172652804033  C 4.02584134615385 19.6954421340055  3.97956730769231 19.5463137996219  3.97956730769231 19.3698802772527  C 3.97956730769231 19.3194706994329  3.98838141025641 19.2354547363999  4.00600961538462 19.1178323881537  L 5.14302884615385 12.8166351606805  L 0.330528846153846 8.35538752362949  C 0.110176282051282 8.12854442344045  0 7.92690611216131  0 7.75047258979206  C 0 7.43961352657005  0.246794871794872 7.2463768115942  0.740384615384615 7.17076244486452  L 7.37740384615385 6.25078764965343  L 10.3521634615385 0.516698172652803  C 10.5196314102564 0.1722327242176  10.7355769230769 0  11 0  C 11.2644230769231 0  11.4803685897436 0.1722327242176  11.6478365384615 0.516698172652803  L 14.6225961538462 6.25078764965343  L 21.2596153846154 7.17076244486452  Z " fill-rule="nonzero" fill="#333333" stroke="none" transform="matrix(1 0 0 1 32 159 )" />
  </g>
</svg>