<?xml version="1.0" encoding="utf-8"?>
<svg version="1.1" xmlns:xlink="http://www.w3.org/1999/xlink" width="35px" height="27px" xmlns="http://www.w3.org/2000/svg">
  <g transform="matrix(1 0 0 1 -235 -1177 )">
    <path d="M 19.3359375 3.44925479063165  C 17.6041666666667 2.78495386799148  15.7421875 2.4528034066714  13.75 2.4528034066714  C 11.7578125 2.4528034066714  9.89583333333333 2.78495386799148  8.1640625 3.44925479063165  C 6.43229166666667 4.11355571327182  5.05533854166667 5.01419446415897  4.033203125 6.15117104329311  C 3.01106770833333 7.28814762242725  2.5 8.50816181689141  2.5 9.81121362668559  C 2.5 10.8587650816182  2.84505208333333 11.8679914833215  3.53515625 12.8388928317956  C 4.22526041666667 13.8097941802697  5.1953125 14.652945351313  6.4453125 15.3683463449255  L 8.33984375 16.4414478353442  L 7.65625 18.0511000709723  C 8.09895833333333 17.7955997161107  8.50260416666667 17.5464868701207  8.8671875 17.3037615330021  L 9.7265625 16.7097232079489  L 10.76171875 16.9013484740951  C 11.77734375 17.0801987224982  12.7734375 17.1696238466998  13.75 17.1696238466998  C 15.7421875 17.1696238466998  17.6041666666667 16.8374733853797  19.3359375 16.1731724627395  C 21.0677083333333 15.5088715400994  22.4446614583333 14.6082327892122  23.466796875 13.4712562100781  C 24.4889322916667 12.3342796309439  25 11.1142654364798  25 9.81121362668559  C 25 8.50816181689141  24.4889322916667 7.28814762242725  23.466796875 6.15117104329311  C 22.4446614583333 5.01419446415897  21.0677083333333 4.11355571327182  19.3359375 3.44925479063165  Z M 6.845703125 1.31263307310149  C 8.96158854166667 0.437544357700496  11.2630208333333 0  13.75 0  C 16.2369791666667 0  18.5384114583333 0.437544357700496  20.654296875 1.31263307310149  C 22.7701822916667 2.18772178850248  24.4401041666667 3.37899219304471  25.6640625 4.88644428672818  C 26.8880208333333 6.39389638041164  27.5 8.03548616039744  27.5 9.81121362668559  C 27.5 11.5869410929737  26.8880208333333 13.2285308729595  25.6640625 14.735982966643  C 24.4401041666667 16.2434350603265  22.7701822916667 17.4347054648687  20.654296875 18.3097941802697  C 18.5384114583333 19.1848828956707  16.2369791666667 19.6224272533712  13.75 19.6224272533712  C 12.6302083333333 19.6224272533712  11.484375 19.5202271114265  10.3125 19.3158268275373  C 8.69791666666667 20.4400283889283  6.88802083333333 21.2576295244854  4.8828125 21.7686302342087  C 4.4140625 21.8836053938964  3.85416666666667 21.985805535841  3.203125 22.0752306600426  L 3.14453125 22.0752306600426  C 3.00130208333333 22.0752306600426  2.86783854166667 22.0241305890703  2.744140625 21.9219304471256  C 2.62044270833333 21.819730305181  2.54557291666667 21.6855926188786  2.51953125 21.5195173882186  C 2.50651041666667 21.4811923349894  2.5 21.4396735273243  2.5 21.3949609652236  C 2.5 21.3502484031228  2.50325520833333 21.3087295954578  2.509765625 21.2704045422285  C 2.51627604166667 21.2320794889993  2.529296875 21.1937544357701  2.548828125 21.1554293825408  L 2.59765625 21.0596167494677  C 2.59765625 21.0596167494677  2.62044270833333 21.0244854506742  2.666015625 20.9542228530873  C 2.71158854166667 20.8839602555004  2.73763020833333 20.8520227111427  2.744140625 20.8584102200142  C 2.75065104166667 20.8647977288857  2.77994791666667 20.832860184528  2.83203125 20.7625975869411  C 2.88411458333333 20.6923349893542  2.91015625 20.6635911994322  2.91015625 20.6763662171753  C 2.97526041666667 20.5997161107168  3.125 20.4400283889283  3.359375 20.1973030518098  C 3.59375 19.9545777146913  3.76302083333333 19.7661462029808  3.8671875 19.6320085166785  C 3.97135416666667 19.4978708303762  4.11783854166667 19.3126330731015  4.306640625 19.0762952448545  C 4.49544270833333 18.8399574166075  4.658203125 18.5940383250532  4.794921875 18.3385379701916  C 4.931640625 18.08303761533  5.06510416666667 17.8019872249823  5.1953125 17.4953867991483  C 3.58072916666667 16.5755855216466  2.31119791666667 15.444996451384  1.38671875 14.1036195883605  C 0.462239583333333 12.7622427253371  0 11.3314407381121  0 9.81121362668559  C 0 8.03548616039744  0.611979166666667 6.39389638041164  1.8359375 4.88644428672818  C 3.05989583333333 3.37899219304471  4.72981770833333 2.18772178850248  6.845703125 1.31263307310149  Z M 33.61328125 19.0188076650106  C 32.6888020833333 20.3537970191625  31.4192708333333 21.4811923349894  29.8046875 22.4009936124911  C 29.9348958333333 22.7075940383251  30.068359375 22.9886444286728  30.205078125 23.2441447835344  C 30.341796875 23.499645138396  30.5045572916667 23.7455642299503  30.693359375 23.9819020581973  C 30.8821614583333 24.2182398864443  31.0286458333333 24.4034776437189  31.1328125 24.5376153300213  C 31.2369791666667 24.6717530163236  31.40625 24.8601845280341  31.640625 25.1029098651526  C 31.875 25.3456352022711  32.0247395833333 25.5053229240596  32.08984375 25.5819730305181  C 32.1028645833333 25.5947480482612  32.12890625 25.6234918381831  32.16796875 25.6682044002839  C 32.20703125 25.7129169623847  32.236328125 25.7448545067424  32.255859375 25.764017033357  C 32.275390625 25.7831795599716  32.3014322916667 25.8151171043293  32.333984375 25.8598296664301  C 32.3665364583333 25.9045422285309  32.3893229166667 25.9396735273243  32.40234375 25.9652235628105  L 32.451171875 26.0610361958836  C 32.451171875 26.0610361958836  32.4641927083333 26.0993612491128  32.490234375 26.1760113555713  C 32.5162760416667 26.2526614620298  32.51953125 26.2941802696948  32.5 26.3005677785664  C 32.48046875 26.3069552874379  32.4739583333333 26.3484740951029  32.48046875 26.4251242015614  C 32.44140625 26.6039744499645  32.3567708333333 26.7444996451384  32.2265625 26.846699787083  C 32.0963541666667 26.9488999290277  31.953125 26.9936124911285  31.796875 26.9808374733854  C 31.1458333333333 26.8914123491838  30.5859375 26.7892122072392  30.1171875 26.6742370475515  C 28.1119791666667 26.1632363378282  26.3020833333333 25.3456352022711  24.6875 24.2214336408801  C 23.515625 24.4258339247693  22.3697916666667 24.528034066714  21.25 24.528034066714  C 17.7213541666667 24.528034066714  14.6484375 23.6848828956707  12.03125 21.9985805535841  C 12.7864583333333 22.0496806245564  13.359375 22.0752306600426  13.75 22.0752306600426  C 15.8463541666667 22.0752306600426  17.8580729166667 21.7877927608233  19.78515625 21.2129169623847  C 21.7122395833333 20.6380411639461  23.4309895833333 19.8140525195174  24.94140625 18.7409510290987  C 26.5690104166667 17.5656493967353  27.8190104166667 16.2114975159688  28.69140625 14.6784953867991  C 29.5638020833333 13.1454932576295  30 11.5230660042583  30 9.81121362668559  C 30 8.82753726046842  29.8502604166667 7.85663591199432  29.55078125 6.89850958126331  C 31.23046875 7.805535841022  32.55859375 8.94251242015614  33.53515625 10.3094393186657  C 34.51171875 11.6763662171753  35 13.1454932576295  35 14.7168204400284  C 35 16.249822569198  34.5377604166667 17.6838183108588  33.61328125 19.0188076650106  Z " fill-rule="nonzero" fill="#ffffff" stroke="none" transform="matrix(1 0 0 1 235 1177 )" />
  </g>
</svg>